<?xml version="1.0" ?><svg data-name="Layer 1" height="28" width="28" id="Layer_1" fill="#6E57E0" viewBox="0 0 512 512" xmlns="http://www.w3.org/2000/svg"><title/><path d="M193.48,216.17h16.36a24.5,24.5,0,0,0,24.47-24.48V162.86a24.5,24.5,0,0,0-24.47-24.47H193.48A24.5,24.5,0,0,0,169,162.86v28.83A24.5,24.5,0,0,0,193.48,216.17Zm-13-53.31a13,13,0,0,1,13-13h16.36a13,13,0,0,1,13,13v28.83a13,13,0,0,1-13,13H193.48a13,13,0,0,1-13-13Z"/><path d="M468,279.17l-80.87-32.42A38.39,38.39,0,0,0,412,210.9V144.32a38.47,38.47,0,0,0-38.43-38.43H362.93V97.55a19,19,0,0,0-19-19H59.36a19,19,0,0,0-19,19V304.41a19,19,0,0,0,19,18.95H241.41v53.25H181.78a45.27,45.27,0,0,0-45.22,45.21v5.82a5.76,5.76,0,0,0,5.76,5.76H294.81a5.76,5.76,0,0,0,5.76-5.76v-110a5.76,5.76,0,1,0-11.51,0V421.89h-141v-.07a33.74,33.74,0,0,1,33.71-33.7h65.38a5.76,5.76,0,0,0,5.76-5.76V288.41l14.15-5.67a5.7,5.7,0,0,0,3-1.21l74.66-29.93a31.57,31.57,0,0,1,11.65-2.27h.23a31.61,31.61,0,0,1,11.65,2.27l91.82,36.81V427.64a5.76,5.76,0,1,0,11.51,0V284.51A5.75,5.75,0,0,0,468,279.17ZM400.52,144.32V210.9a27,27,0,0,1-26.92,26.92H335.26a26.94,26.94,0,0,1-26.91-26.92V144.32a27,27,0,0,1,26.91-26.92H373.6A27,27,0,0,1,400.52,144.32ZM245,279.17a5.76,5.76,0,0,0-3.61,5.34v27.34h-182a7.45,7.45,0,0,1-7.45-7.44V97.55a7.45,7.45,0,0,1,7.45-7.44H344a7.45,7.45,0,0,1,7.44,7.44v8.34H335.26a38.47,38.47,0,0,0-38.42,38.43V210.9a38.36,38.36,0,0,0,27.24,36.58l-51.75,20.74V248.47a5.77,5.77,0,0,0-2.9-5l-38.27-21.88a5.77,5.77,0,0,0-7.71,1.91l-21.79,34.17L179.88,223.5a5.78,5.78,0,0,0-7.71-1.91L133.9,243.47a5.77,5.77,0,0,0-2.9,5v42.27a5.76,5.76,0,1,0,11.51,0V251.81l30.61-17.5,23.68,37.16a5.76,5.76,0,0,0,9.72,0l23.69-37.16,30.61,17.5v21Z"/></svg>