<?xml version="1.0" ?><!DOCTYPE svg  PUBLIC '-//W3C//DTD SVG 1.1//EN'  'http://www.w3.org/Graphics/SVG/1.1/DTD/svg11.dtd'><svg enable-background="new 0 0 32 32" height="32px" version="1.1" viewBox="0 0 32 32" fill="#6E57E0" width="32px" xml:space="preserve" xmlns="http://www.w3.org/2000/svg" xmlns:xlink="http://www.w3.org/1999/xlink"><g id="Guides"/><g id="Mail"><path d="M25.8711,6H6.1289C3.8521,6,2,7.8521,2,10.1289v11.7422C2,24.1479,3.8521,26,6.1289,26h19.7422   C28.1479,26,30,24.1479,30,21.8711V10.1289C30,7.8521,28.1479,6,25.8711,6z M6.1289,8h19.7422C27.0449,8,28,8.9551,28,10.1289   v0.1348l-12,4.6636L4,10.2637v-0.1348C4,8.9551,4.9551,8,6.1289,8z M25.8711,24H6.1289C4.9551,24,4,23.0449,4,21.8711v-9.4619   l11.6377,4.5229C15.7544,16.9775,15.877,17,16,17s0.2456-0.0225,0.3623-0.0679L28,12.4092v9.4619C28,23.0449,27.0449,24,25.8711,24   z"/></g><g id="Cloud"/><g id="Home"/><g id="Back"/><g id="Next"/><g id="Reload"/><g id="Buble"/><g id="Accept"/><g id="Reject"/><g id="User"/><g id="Download"/><g id="Upload"/><g id="Camera"/><g id="Notification"/><g id="About"/><g id="Search"/><g id="Cart"/><g id="Sound"/><g id="List"/><g id="Settings"/></svg>